<svg xmlns="http://www.w3.org/2000/svg" width="21.522" height="33" viewBox="0 0 21.522 33">
  <path id="icons8_idea" d="M20.761,3A10.774,10.774,0,0,0,10,13.761a10.7,10.7,0,0,0,3.452,8.115c.916.984,1.569,1.69,1.569,2.645v3.587h5.022V17.639l-2.668-2.645a.729.729,0,0,1,1.031-1.031l2.354,2.376,2.354-2.376a.729.729,0,0,1,1.031,1.031l-2.668,2.645V28.109H26.5V24.522c0-1.373.793-2.205,1.793-3.251a9.616,9.616,0,0,0,3.228-7.51A10.774,10.774,0,0,0,20.761,3ZM15.022,29.543V31.7a2.156,2.156,0,0,0,2.152,2.152H18a2.843,2.843,0,0,0,5.515,0h.829A2.156,2.156,0,0,0,26.5,31.7V29.543Z" transform="translate(-10 -3)" fill="#000e49"/>
</svg>
