<svg xmlns="http://www.w3.org/2000/svg" width="140" height="140" viewBox="0 0 140 140">
  <g id="icon-group" transform="translate(-224 -3770)">
    <circle id="Эллипс_7" data-name="Эллипс 7" cx="70" cy="70" r="70" transform="translate(224 3770)" fill="#7b8ba7"/>
    <path id="icons8_helping_hand" d="M35.558,0a1.094,1.094,0,0,0-.969.415L31.264,4.571a3.407,3.407,0,0,1-2.147,1.246l-.312.035c-1.48.208-4.306,1.857-5.713,5.3s-5.678,14.23-5.678,14.23a3.324,3.324,0,0,0,6.163,2.493l4.917-12.361H52.142l3.082-4.951a1.095,1.095,0,0,0-.45-1.593L35.938.1A1.219,1.219,0,0,0,35.558,0ZM17.969,14.439A7.79,7.79,0,0,0,11.494,17.9L6.959,24.722.484,29.015a1.122,1.122,0,0,0-.45,1.177l.935,4.189,3.5,15.754A1.1,1.1,0,0,0,5.539,51h5.54V48.716a4.418,4.418,0,0,1,7.756-2.874,4.388,4.388,0,0,1,6.648,0,4.388,4.388,0,0,1,6.648,0,4.418,4.418,0,0,1,7.756,2.874V51h6.648a3.324,3.324,0,1,0,0-6.648H44.317a1.108,1.108,0,0,1,0-2.216h3.324a3.324,3.324,0,0,0,0-6.648H45.425a1.108,1.108,0,0,1,0-2.216h3.324a3.324,3.324,0,0,0,0-6.648H46.533a1.108,1.108,0,1,1,0-2.216h3.324a3.324,3.324,0,0,0,0-6.648H30.018l-4.4,10.976A5.5,5.5,0,0,1,20.5,32.2a5.635,5.635,0,0,1-2.077-.381,5.546,5.546,0,0,1-3.081-7.2l4.086-10.179Zm-2.458,32.1a2.2,2.2,0,0,0-2.216,2.181v3.428a2.216,2.216,0,0,0,4.432,0V48.716A2.2,2.2,0,0,0,15.511,46.534Zm6.648,0a2.2,2.2,0,0,0-2.216,2.181v3.428a2.216,2.216,0,0,0,4.432,0V48.716A2.2,2.2,0,0,0,22.158,46.534Zm6.648,0a2.2,2.2,0,0,0-2.216,2.181v3.428a2.216,2.216,0,0,0,4.432,0V48.716A2.2,2.2,0,0,0,28.806,46.534Zm6.648,0a2.2,2.2,0,0,0-2.216,2.181v3.428a2.216,2.216,0,0,0,4.432,0V48.716A2.2,2.2,0,0,0,35.454,46.534Z" transform="translate(265.795 3812.84)" fill="#fff"/>
  </g>
</svg>
