<svg xmlns="http://www.w3.org/2000/svg" width="140" height="140" viewBox="0 0 140 140">
  <g id="icon-group" transform="translate(-663 -3770)">
    <circle id="Эллипс_8" data-name="Эллипс 8" cx="70" cy="70" r="70" transform="translate(663 3770)" fill="#7b8ba7"/>
    <path id="icons8_Time_Management_Skills" d="M28.589,0C8.985,0,2,13.735,2,26.589A26.4,26.4,0,0,0,6.654,41.615,23.087,23.087,0,0,1,10.863,54.7v7.345H41.251V56.681l2.545.163A10.222,10.222,0,0,0,51.734,54.2a10.631,10.631,0,0,0,3.445-7.852V40.287l4.414-2.208a3.562,3.562,0,0,0,1.365-4.909L55.139,23.142C53.251,8,44.075,0,28.589,0Zm0,10.129A15.194,15.194,0,1,1,13.4,25.323,15.211,15.211,0,0,1,28.589,10.129Zm-.02,3.781a1.266,1.266,0,0,0-1.246,1.284v7.938a2.532,2.532,0,1,0,3.8,2.149l4.449-2.671a1.266,1.266,0,1,0-1.3-2.171l-4.414,2.649V15.194A1.266,1.266,0,0,0,28.57,13.91Z" transform="translate(701.283 3808.979)" fill="#fff"/>
  </g>
</svg>
