<svg xmlns="http://www.w3.org/2000/svg" xmlns:xlink="http://www.w3.org/1999/xlink" width="140" height="140" viewBox="0 0 140 140">
  <defs>
    <clipPath id="clip-path">
      <rect id="Прямоугольник_79" data-name="Прямоугольник 79" width="77.979" height="77.748" fill="#fff"/>
    </clipPath>
  </defs>
  <g id="icon-group" transform="translate(-1091.783 -3507)">
    <circle id="Эллипс_9" data-name="Эллипс 9" cx="70" cy="70" r="70" transform="translate(1091.783 3507)" fill="#7b8ba7"/>
    <g id="Сгруппировать_54" data-name="Сгруппировать 54" transform="translate(1122.891 3536)">
      <g id="Сгруппировать_53" data-name="Сгруппировать 53" transform="translate(0 0)" clip-path="url(#clip-path)">
        <path id="Контур_25" data-name="Контур 25" d="M70.865,55.95a1.057,1.057,0,0,1-1.057-1.057V27.975a25.861,25.861,0,0,0-51.722,0V54.893a1.057,1.057,0,1,1-2.114,0V27.975a27.974,27.974,0,1,1,55.948,0V54.893a1.057,1.057,0,0,1-1.057,1.057" transform="translate(-4.958 0)" fill="#fff"/>
        <path id="Контур_26" data-name="Контур 26" d="M12.072,70.823H6.34A6.348,6.348,0,0,1,0,64.483V54.263a6.348,6.348,0,0,1,6.34-6.341h5.732a1.058,1.058,0,0,1,1.057,1.057V69.766a1.057,1.057,0,0,1-1.057,1.057M6.34,50.036a4.231,4.231,0,0,0-4.227,4.227v10.22A4.231,4.231,0,0,0,6.34,68.709h4.676V50.036Z" transform="translate(0 -14.874)" fill="#fff"/>
        <path id="Контур_27" data-name="Контур 27" d="M100.826,70.823H95.094a1.057,1.057,0,0,1-1.057-1.057V48.979a1.057,1.057,0,0,1,1.057-1.057h5.732a6.348,6.348,0,0,1,6.34,6.341v10.22a6.348,6.348,0,0,1-6.34,6.34M96.15,68.709h4.676a4.231,4.231,0,0,0,4.227-4.226V54.263a4.231,4.231,0,0,0-4.227-4.227H96.15Z" transform="translate(-29.186 -14.874)" fill="#fff"/>
        <path id="Контур_28" data-name="Контур 28" d="M48.483,108.136a5.113,5.113,0,1,1,5.112-5.112,5.117,5.117,0,0,1-5.112,5.112m0-8.111a3,3,0,1,0,3,3,3,3,0,0,0-3-3" transform="translate(-13.461 -30.389)" fill="#fff"/>
        <path id="Контур_29" data-name="Контур 29" d="M35.924,97.921H34.773a18.822,18.822,0,0,1-18.8-18.8,1.057,1.057,0,1,1,2.113,0A16.7,16.7,0,0,0,34.773,95.807h1.151a1.057,1.057,0,0,1,0,2.114" transform="translate(-4.958 -24.229)" fill="#fff"/>
      </g>
    </g>
  </g>
</svg>
