<svg xmlns="http://www.w3.org/2000/svg" width="140" height="140" viewBox="0 0 140 140">
  <g id="icon-group" transform="translate(-1540 -3770)">
    <circle id="Эллипс_10" data-name="Эллипс 10" cx="70" cy="70" r="70" transform="translate(1540 3770)" fill="#7b8ba7"/>
    <path id="icons8_batch_assign" d="M20.51,4a6.032,6.032,0,1,0,6.032,6.032A6.032,6.032,0,0,0,20.51,4ZM39.574,4a6.032,6.032,0,1,0,6.032,6.032A6.032,6.032,0,0,0,39.574,4ZM20.51,17.271a9.629,9.629,0,0,0-6.127,2.215,9.022,9.022,0,0,1,1.8,14.86,12.714,12.714,0,0,1,3.6,2.686,14.461,14.461,0,0,1,4.143-2.757,9.631,9.631,0,0,1,1.419-15.7A9.629,9.629,0,0,0,20.51,17.271Zm19.3,0a9.629,9.629,0,0,0-4.831,1.3,9.631,9.631,0,0,1,1.419,15.7,14.662,14.662,0,0,1,2.964,1.753,14.312,14.312,0,0,1,4.161-2.262,9.025,9.025,0,0,1,2.413-14.28A9.629,9.629,0,0,0,39.814,17.271Zm-9.652,2.413A7.239,7.239,0,1,0,37.4,26.923,7.241,7.241,0,0,0,30.162,19.684ZM10.255,20.891a6.636,6.636,0,1,0,6.636,6.636A6.633,6.633,0,0,0,10.255,20.891Zm39.814,0a6.634,6.634,0,0,0-3.624,12.192,14,14,0,0,1,6.207.556A6.636,6.636,0,0,0,50.07,20.891ZM10.255,35.369C4.6,35.369,0,39.62,0,44.851V49.5a1.209,1.209,0,0,0,.528.995c.259.179,2.766,1.763,9.727,1.763a33.444,33.444,0,0,0,5.448-.4,1.378,1.378,0,0,1-.019-.146V46.237a12.46,12.46,0,0,1,2.474-7.418A10.572,10.572,0,0,0,10.255,35.369Zm19.907,0c-6.655,0-12.065,4.873-12.065,10.868v5.476a1.109,1.109,0,0,0,.509.924c.306.207,3.266,2.036,11.556,2.036a43.61,43.61,0,0,0,5.387-.306,14.441,14.441,0,0,1,2.031-16.684A12.872,12.872,0,0,0,30.162,35.369Zm18.1,0A12.065,12.065,0,1,0,60.325,47.434,12.082,12.082,0,0,0,48.26,35.369Zm0,2.413a9.652,9.652,0,1,1-9.652,9.652A9.634,9.634,0,0,1,48.26,37.782Zm5.114,4.039-6.5,7.592-3.921-2.946L41.506,48.4l5.731,4.293,7.974-9.3Z" transform="translate(1579.838 3808.25)" fill="#fff"/>
  </g>
</svg>
